<?xml version="1.0" encoding="utf-8"?>
<!-- Generator: Adobe Illustrator 16.0.0, SVG Export Plug-In . SVG Version: 6.00 Build 0)  -->
<!DOCTYPE svg PUBLIC "-//W3C//DTD SVG 1.1//EN" "http://www.w3.org/Graphics/SVG/1.1/DTD/svg11.dtd">
<svg version="1.1" id="Ebene_1" xmlns="http://www.w3.org/2000/svg" xmlns:xlink="http://www.w3.org/1999/xlink" x="0px" y="0px"
	 width="374.286px" height="401.428px" viewBox="0 0 374.286 401.428" enable-background="new 0 0 374.286 401.428"
	 xml:space="preserve">
<g id="Ebene_9" display="none">
	<rect x="-233.286" y="-354.662" display="inline" fill="#474747" width="841.89" height="1399.43"/>
</g>
<g id="Logo">
	<g>
		<g>
			<path fill="#FDC21F" d="M44.96,193.445c0,10.49,7.371,18.986,16.472,18.986h87.024l7.271,30.741l31.951-30.741h126.205
				c9.103,0,16.474-8.496,16.474-18.986V44.432c0-10.479-7.371-18.979-16.474-18.979H61.432c-9.101,0-16.472,8.498-16.472,18.979
				V193.445z"/>
		</g>
	</g>
	<polyline fill="none" stroke="#FFFFFF" stroke-width="14" stroke-linecap="square" stroke-miterlimit="10" points="
		136.813,124.463 170.613,163.694 247.713,72.955 	"/>
</g>
<g id="App_Logo">
	<g>
		<path fill="#FFFFFF" d="M20.63,329.724c1.44,0.12,3.12,0.12,4.56,0.12c4.2,0,7.56-1.562,7.56-8.039v-64.077h13.2v63.117
			c0,16.799-9,21.119-18.959,21.119c-2.4,0-4.2,0-6.36-0.24L20.63,329.724L20.63,329.724z"/>
		<path fill="#FFFFFF" d="M54.469,277.886c0-13.439,7.08-21.119,20.039-21.119c12.96,0,20.039,7.68,20.039,21.119v43.679
			c0,13.439-7.079,21.119-20.039,21.119c-12.959,0-20.039-7.68-20.039-21.119V277.886z M67.668,322.405c0,6,2.641,8.28,6.84,8.28
			c4.2,0,6.84-2.28,6.84-8.28v-45.356c0-5.999-2.64-8.279-6.84-8.279c-4.199,0-6.84,2.28-6.84,8.279V322.405z"/>
		<path fill="#FFFFFF" d="M143.147,277.046v3c0,8.64-2.64,14.04-8.52,16.8v0.239c7.079,2.761,9.839,9,9.839,17.88v6.84
			c0,12.959-6.839,19.919-20.039,19.919h-20.759v-83.996h19.919C137.268,257.728,143.147,264.087,143.147,277.046z M116.868,269.727
			v22.199h5.16c4.92,0,7.92-2.16,7.92-8.88v-4.68c0-6-2.04-8.642-6.72-8.642L116.868,269.727L116.868,269.727z M116.868,303.925
			v25.799h7.56c4.44,0,6.84-2.039,6.84-8.279v-7.317c0-7.8-2.52-10.2-8.52-10.2L116.868,303.925L116.868,303.925z"/>
		<path fill="#FFFFFF" d="M170.987,257.728h20.879c13.199,0,19.68,7.319,19.68,20.759v42.479c0,13.438-6.479,20.759-19.68,20.759
			h-20.879V257.728z M184.187,269.727v59.997h7.44c4.199,0,6.719-2.159,6.719-8.159v-43.679c0-5.999-2.52-8.159-6.719-8.159H184.187
			z"/>
		<path fill="#FFFFFF" d="M218.868,277.886c0-13.439,7.079-21.119,20.038-21.119s20.039,7.68,20.039,21.119v43.679
			c0,13.439-7.08,21.119-20.039,21.119s-20.038-7.68-20.038-21.119V277.886L218.868,277.886z M232.066,322.405
			c0,6,2.642,8.28,6.84,8.28c4.199,0,6.841-2.28,6.841-8.28v-45.356c0-5.999-2.642-8.279-6.841-8.279c-4.198,0-6.84,2.28-6.84,8.279
			V322.405z"/>
		<path fill="#FFFFFF" d="M279.463,280.886h-0.237v60.838h-11.881v-83.996h16.561l13.318,50.277h0.239v-50.277h11.761v83.996h-13.56
			L279.463,280.886z"/>
		<path fill="#FFFFFF" d="M331.904,293.126h18.119v11.999h-18.119v24.599h22.8v12h-35.998v-83.996h35.998v11.999h-22.8V293.126z"/>
	</g>
	<g>
		<path fill="#FFFFFF" d="M42.538,378.769v-17.773h5.188c1.848,0,3.285,0.391,4.316,1.167c1.029,0.777,1.543,1.947,1.543,3.513
			c0,0.912-0.258,1.706-0.775,2.382c-0.516,0.676-1.219,1.145-2.105,1.404c1.082,0.193,1.961,0.702,2.637,1.523
			c0.676,0.822,1.014,1.771,1.014,2.843c0,1.586-0.516,2.809-1.545,3.66c-1.029,0.854-2.406,1.281-4.131,1.281H42.538
			L42.538,378.769z M43.991,368.966h4.088c1.287,0,2.281-0.282,2.986-0.85c0.703-0.563,1.055-1.396,1.055-2.496
			c0-1.122-0.373-1.968-1.123-2.531c-0.748-0.565-1.838-0.851-3.271-0.851h-3.734L43.991,368.966L43.991,368.966z M43.991,370.212
			v7.312h4.688c1.311,0,2.34-0.322,3.088-0.967c0.748-0.646,1.123-1.548,1.123-2.708c0-1.062-0.34-1.936-1.02-2.615
			c-0.68-0.681-1.666-1.021-2.961-1.021L43.991,370.212L43.991,370.212z"/>
		<path fill="#FFFFFF" d="M56.934,371.97c0-1.945,0.532-3.541,1.599-4.785c1.066-1.246,2.478-1.868,4.235-1.868
			c1.767,0,3.183,0.622,4.248,1.868c1.066,1.244,1.6,2.84,1.6,4.785v0.4c0,1.953-0.531,3.553-1.593,4.791
			c-1.062,1.241-2.472,1.861-4.229,1.861c-1.774,0-3.194-0.62-4.261-1.861c-1.066-1.238-1.599-2.838-1.599-4.791V371.97z
			 M58.398,372.365c0,1.528,0.386,2.812,1.159,3.854s1.852,1.562,3.235,1.562c1.358,0,2.427-0.521,3.204-1.562
			c0.776-1.04,1.165-2.324,1.165-3.854v-0.401c0-1.503-0.391-2.779-1.172-3.828c-0.781-1.049-1.855-1.573-3.223-1.573
			c-1.368,0-2.437,0.524-3.21,1.573s-1.159,2.325-1.159,3.828L58.398,372.365L58.398,372.365z"/>
		<path fill="#FFFFFF" d="M70.975,371.97c0-1.945,0.532-3.541,1.599-4.785c1.066-1.246,2.478-1.868,4.235-1.868
			c1.767,0,3.183,0.622,4.248,1.868c1.066,1.244,1.6,2.84,1.6,4.785v0.4c0,1.953-0.531,3.553-1.593,4.791
			c-1.062,1.241-2.472,1.861-4.229,1.861c-1.774,0-3.194-0.62-4.261-1.861c-1.066-1.238-1.599-2.838-1.599-4.791V371.97z
			 M72.439,372.365c0,1.528,0.386,2.812,1.159,3.854s1.852,1.562,3.235,1.562c1.358,0,2.427-0.521,3.204-1.562
			c0.776-1.04,1.165-2.324,1.165-3.854v-0.401c0-1.503-0.391-2.779-1.172-3.828c-0.781-1.049-1.855-1.573-3.223-1.573
			c-1.368,0-2.437,0.524-3.21,1.573s-1.159,2.325-1.159,3.828L72.439,372.365L72.439,372.365z"/>
		<path fill="#FFFFFF" d="M93.743,375.406c0-0.617-0.255-1.157-0.763-1.62c-0.509-0.463-1.427-0.84-2.753-1.132
			c-1.579-0.342-2.745-0.794-3.497-1.354c-0.753-0.562-1.129-1.355-1.129-2.381c0-1.011,0.425-1.861,1.275-2.559
			s1.976-1.044,3.375-1.044c1.489,0,2.669,0.368,3.54,1.104c0.871,0.735,1.286,1.656,1.245,2.766l-0.024,0.072h-1.354
			c0-0.726-0.308-1.354-0.922-1.894c-0.615-0.537-1.442-0.806-2.484-0.806c-1.066,0-1.866,0.229-2.398,0.687
			c-0.533,0.457-0.8,0.994-0.8,1.609c0,0.606,0.229,1.109,0.689,1.506c0.46,0.397,1.378,0.745,2.753,1.044
			c1.57,0.354,2.746,0.831,3.527,1.439c0.781,0.606,1.172,1.435,1.172,2.479c0,1.104-0.445,1.994-1.336,2.678
			c-0.892,0.682-2.069,1.021-3.534,1.021c-1.604,0-2.862-0.382-3.778-1.146c-0.915-0.768-1.349-1.679-1.3-2.734l0.024-0.074h1.343
			c0.057,0.948,0.445,1.637,1.166,2.066c0.72,0.43,1.568,0.645,2.545,0.645c1.058,0,1.892-0.229,2.503-0.692
			C93.438,376.622,93.743,376.063,93.743,375.406z"/>
		<path fill="#FFFFFF" d="M100.984,362.179v3.382h2.905v1.196h-2.905v8.604c0,0.863,0.156,1.478,0.47,1.838
			c0.314,0.362,0.73,0.543,1.252,0.543c0.235,0,0.465-0.01,0.689-0.028c0.224-0.021,0.482-0.058,0.775-0.104l0.219,1.087
			c-0.244,0.105-0.541,0.188-0.891,0.244s-0.7,0.085-1.05,0.085c-0.928,0-1.65-0.293-2.167-0.879
			c-0.517-0.586-0.775-1.514-0.775-2.783v-8.604h-2.282v-1.196h2.282v-3.382L100.984,362.179L100.984,362.179z"/>
		<path fill="#FFFFFF" d="M108.751,361.777h-1.453v-2.051h1.453V361.777z M108.751,378.769h-1.453v-13.208h1.453V378.769z"/>
		<path fill="#FFFFFF" d="M114.21,365.561l0.135,2.308c0.423-0.812,0.994-1.44,1.715-1.887c0.72-0.443,1.572-0.665,2.557-0.665
			c1.433,0,2.523,0.438,3.271,1.312c0.749,0.875,1.123,2.237,1.123,4.095v8.045h-1.465v-8.048c0-1.52-0.282-2.59-0.848-3.218
			c-0.566-0.628-1.369-0.941-2.411-0.941c-1.025,0-1.861,0.271-2.509,0.813c-0.646,0.542-1.112,1.262-1.397,2.157v9.234h-1.465
			V365.56L114.21,365.561L114.21,365.561z"/>
		<path fill="#FFFFFF" d="M126.384,372.275c0-2.105,0.449-3.794,1.349-5.06c0.898-1.268,2.15-1.898,3.753-1.898
			c0.937,0,1.746,0.206,2.43,0.616c0.684,0.411,1.249,0.991,1.697,1.74l0.17-2.112h1.233v13.037c0,1.701-0.47,3.044-1.41,4.028
			c-0.939,0.982-2.248,1.477-3.925,1.477c-0.635,0-1.31-0.077-2.025-0.231c-0.717-0.152-1.344-0.364-1.881-0.635l0.379-1.231
			c0.521,0.261,1.07,0.458,1.648,0.593c0.577,0.134,1.195,0.201,1.855,0.201c1.285,0,2.256-0.37,2.911-1.11
			c0.654-0.741,0.982-1.771,0.982-3.089v-1.66c-0.447,0.667-1.013,1.183-1.696,1.544c-0.684,0.362-1.481,0.543-2.393,0.543
			c-1.588,0-2.831-0.59-3.729-1.77c-0.899-1.182-1.349-2.755-1.349-4.727L126.384,372.275L126.384,372.275z M127.849,372.531
			c0,1.596,0.325,2.867,0.977,3.819c0.65,0.952,1.619,1.429,2.904,1.429c0.944,0,1.731-0.219,2.362-0.652
			c0.631-0.437,1.117-1.035,1.459-1.802v-6.128c-0.317-0.771-0.783-1.402-1.397-1.896c-0.615-0.493-1.414-0.739-2.398-0.739
			c-1.286,0-2.259,0.531-2.918,1.594c-0.659,1.063-0.988,2.438-0.988,4.119L127.849,372.531L127.849,372.531z"/>
		<path fill="#FFFFFF" d="M149.082,377.524h8.789v1.245h-10.254v-17.773h1.465V377.524z"/>
		<path fill="#FFFFFF" d="M159.692,371.97c0-1.945,0.532-3.541,1.599-4.785c1.066-1.246,2.478-1.868,4.235-1.868
			c1.767,0,3.183,0.622,4.248,1.868c1.066,1.244,1.6,2.84,1.6,4.785v0.4c0,1.953-0.531,3.553-1.593,4.791
			c-1.062,1.241-2.472,1.861-4.229,1.861c-1.774,0-3.194-0.62-4.261-1.861c-1.066-1.238-1.599-2.838-1.599-4.791V371.97z
			 M161.157,372.365c0,1.528,0.386,2.812,1.159,3.854s1.852,1.562,3.235,1.562c1.358,0,2.427-0.521,3.204-1.562
			c0.776-1.04,1.165-2.324,1.165-3.854v-0.401c0-1.503-0.391-2.779-1.172-3.828c-0.781-1.049-1.855-1.573-3.223-1.573
			s-2.437,0.524-3.21,1.573s-1.159,2.325-1.159,3.828v0.401H161.157z"/>
		<path fill="#FFFFFF" d="M179.446,377.781c0.968,0,1.822-0.274,2.562-0.827c0.741-0.552,1.111-1.315,1.111-2.298h1.294l0.024,0.072
			c0.041,1.221-0.447,2.242-1.465,3.064c-1.018,0.82-2.193,1.23-3.527,1.23c-1.799,0-3.188-0.616-4.169-1.849
			c-0.981-1.233-1.472-2.818-1.472-4.755v-0.515c0-1.921,0.493-3.499,1.478-4.734c0.985-1.237,2.368-1.855,4.15-1.855
			c1.448,0,2.655,0.427,3.619,1.282c0.965,0.854,1.431,1.977,1.397,3.369l-0.023,0.07h-1.307c0-1.058-0.356-1.899-1.068-2.53
			c-0.712-0.633-1.585-0.946-2.618-0.946c-1.416,0-2.464,0.506-3.144,1.519c-0.68,1.014-1.02,2.286-1.02,3.822v0.513
			c0,1.562,0.338,2.847,1.014,3.854C176.958,377.276,178.014,377.781,179.446,377.781z"/>
		<path fill="#FFFFFF" d="M195.991,378.769c-0.099-0.447-0.169-0.834-0.21-1.16c-0.04-0.325-0.061-0.654-0.061-0.988
			c-0.488,0.691-1.14,1.268-1.953,1.723c-0.813,0.456-1.729,0.684-2.746,0.684c-1.287,0-2.285-0.342-2.998-1.023
			c-0.712-0.686-1.067-1.601-1.067-2.746c0-1.223,0.526-2.197,1.58-2.932c1.053-0.73,2.479-1.099,4.268-1.099h2.918v-1.636
			c0-0.944-0.305-1.687-0.91-2.224c-0.604-0.536-1.453-0.806-2.545-0.806c-1.02,0-1.861,0.256-2.533,0.77
			c-0.67,0.514-1.006,1.141-1.006,1.881l-1.343-0.014l-0.024-0.071c-0.049-0.984,0.398-1.865,1.35-2.645
			c0.949-0.777,2.155-1.166,3.621-1.166c1.455,0,2.627,0.37,3.517,1.11c0.887,0.741,1.329,1.803,1.329,3.187v6.494
			c0,0.464,0.025,0.915,0.078,1.354c0.054,0.438,0.142,0.875,0.265,1.307H195.991L195.991,378.769z M191.191,377.732
			c1.052,0,1.979-0.246,2.783-0.739c0.807-0.49,1.389-1.121,1.746-1.886v-2.759h-2.941c-1.325,0-2.387,0.283-3.18,0.849
			c-0.795,0.565-1.19,1.27-1.19,2.105c0,0.716,0.245,1.3,0.737,1.752C189.638,377.505,190.32,377.732,191.191,377.732z"/>
		<path fill="#FFFFFF" d="M202.829,378.769h-1.453v-19.043h1.453V378.769z"/>
		<path fill="#FFFFFF" d="M213.599,378.769v-17.773h5.188c1.848,0,3.283,0.391,4.314,1.167c1.027,0.777,1.543,1.947,1.543,3.513
			c0,0.912-0.258,1.706-0.773,2.382c-0.517,0.676-1.221,1.145-2.105,1.404c1.082,0.193,1.961,0.702,2.637,1.523
			c0.676,0.822,1.014,1.771,1.014,2.843c0,1.586-0.516,2.809-1.545,3.66c-1.029,0.854-2.406,1.281-4.131,1.281H213.599
			L213.599,378.769z M215.052,368.966h4.088c1.287,0,2.28-0.282,2.985-0.85c0.703-0.563,1.056-1.396,1.056-2.496
			c0-1.122-0.373-1.968-1.123-2.531c-0.748-0.565-1.838-0.851-3.271-0.851h-3.734L215.052,368.966L215.052,368.966z
			 M215.052,370.212v7.312h4.688c1.311,0,2.34-0.322,3.088-0.967c0.748-0.646,1.123-1.548,1.123-2.708
			c0-1.062-0.342-1.936-1.021-2.615c-0.682-0.681-1.666-1.021-2.961-1.021L215.052,370.212L215.052,370.212z"/>
		<path fill="#FFFFFF" d="M237.468,376.609c-0.425,0.772-0.994,1.369-1.71,1.788c-0.717,0.419-1.562,0.628-2.538,0.628
			c-1.394,0-2.482-0.472-3.271-1.416c-0.791-0.943-1.188-2.408-1.188-4.395v-7.653h1.465v7.693c0,1.613,0.273,2.771,0.824,3.474
			c0.549,0.702,1.326,1.053,2.338,1.053c1.105,0,1.988-0.249,2.646-0.747c0.66-0.497,1.119-1.182,1.381-2.055v-9.418h1.465v13.208
			h-1.295L237.468,376.609z"/>
		<path fill="#FFFFFF" d="M250.763,375.406c0-0.617-0.255-1.157-0.763-1.62c-0.511-0.463-1.429-0.84-2.754-1.132
			c-1.578-0.342-2.744-0.794-3.496-1.354c-0.754-0.562-1.129-1.355-1.129-2.381c0-1.011,0.424-1.861,1.274-2.559
			c0.851-0.696,1.976-1.044,3.375-1.044c1.487,0,2.668,0.368,3.539,1.104c0.871,0.735,1.287,1.656,1.246,2.766l-0.025,0.072h-1.354
			c0-0.726-0.31-1.354-0.923-1.894c-0.614-0.537-1.442-0.806-2.483-0.806c-1.065,0-1.867,0.229-2.397,0.687
			c-0.533,0.457-0.802,0.994-0.802,1.609c0,0.606,0.23,1.109,0.689,1.506c0.461,0.396,1.379,0.745,2.754,1.044
			c1.569,0.354,2.746,0.831,3.526,1.439c0.781,0.606,1.172,1.435,1.172,2.479c0,1.104-0.444,1.994-1.336,2.678
			c-0.894,0.682-2.069,1.021-3.534,1.021c-1.604,0-2.861-0.382-3.777-1.146c-0.916-0.768-1.351-1.679-1.301-2.734l0.024-0.074h1.342
			c0.058,0.948,0.445,1.637,1.166,2.066c0.722,0.429,1.568,0.645,2.546,0.645c1.059,0,1.893-0.229,2.504-0.692
			C250.458,376.622,250.763,376.063,250.763,375.406z"/>
		<path fill="#FFFFFF" d="M257.347,361.777h-1.453v-2.051h1.453V361.777z M257.347,378.769h-1.453v-13.208h1.453V378.769z"/>
		<path fill="#FFFFFF" d="M262.806,365.561l0.135,2.308c0.422-0.812,0.994-1.44,1.715-1.887c0.72-0.443,1.572-0.665,2.558-0.665
			c1.433,0,2.522,0.438,3.271,1.312s1.123,2.237,1.123,4.095v8.045h-1.465v-8.048c0-1.52-0.283-2.59-0.85-3.218
			c-0.565-0.628-1.369-0.941-2.412-0.941c-1.023,0-1.859,0.271-2.508,0.813c-0.646,0.542-1.111,1.262-1.396,2.157v9.234h-1.465
			V365.56L262.806,365.561L262.806,365.561z"/>
		<path fill="#FFFFFF" d="M280.508,379.025c-1.651,0-3.024-0.609-4.12-1.83c-1.095-1.221-1.642-2.768-1.642-4.639v-0.672
			c0-1.89,0.543-3.455,1.629-4.699c1.086-1.246,2.401-1.868,3.949-1.868c1.618,0,2.894,0.513,3.819,1.538s1.394,2.393,1.394,4.102
			v1.245h-9.326v0.354c0,1.483,0.396,2.729,1.185,3.727c0.789,0.999,1.826,1.499,3.113,1.499c0.909,0,1.688-0.127,2.331-0.379
			c0.643-0.252,1.191-0.614,1.646-1.086l0.623,1c-0.496,0.523-1.125,0.938-1.887,1.247
			C282.463,378.87,281.558,379.025,280.508,379.025z M280.327,366.562c-1.082,0-1.99,0.412-2.724,1.235
			c-0.731,0.822-1.158,1.854-1.281,3.099l0.025,0.061h7.737v-0.363c0-1.146-0.338-2.104-1.015-2.873
			C282.396,366.948,281.482,366.562,280.327,366.562z"/>
		<path fill="#FFFFFF" d="M296.465,375.406c0-0.617-0.254-1.157-0.762-1.62c-0.511-0.463-1.429-0.84-2.754-1.132
			c-1.578-0.342-2.744-0.794-3.496-1.354c-0.754-0.562-1.129-1.355-1.129-2.381c0-1.011,0.424-1.861,1.274-2.559
			c0.851-0.696,1.976-1.044,3.375-1.044c1.487,0,2.668,0.368,3.539,1.104c0.87,0.735,1.286,1.656,1.245,2.766l-0.024,0.072h-1.354
			c0-0.726-0.31-1.354-0.922-1.894c-0.614-0.537-1.442-0.806-2.483-0.806c-1.065,0-1.867,0.229-2.397,0.687
			c-0.533,0.457-0.802,0.994-0.802,1.609c0,0.606,0.229,1.109,0.688,1.506c0.461,0.396,1.379,0.745,2.754,1.044
			c1.57,0.354,2.746,0.831,3.527,1.439c0.78,0.606,1.172,1.435,1.172,2.479c0,1.104-0.444,1.994-1.336,2.678
			c-0.894,0.682-2.069,1.021-3.535,1.021c-1.604,0-2.86-0.382-3.776-1.146c-0.916-0.768-1.351-1.679-1.302-2.734l0.025-0.074h1.342
			c0.058,0.948,0.444,1.637,1.166,2.066c0.722,0.429,1.567,0.645,2.545,0.645c1.06,0,1.894-0.229,2.504-0.692
			C296.161,376.622,296.465,376.063,296.465,375.406z"/>
		<path fill="#FFFFFF" d="M309.325,375.406c0-0.617-0.255-1.157-0.763-1.62c-0.51-0.463-1.429-0.84-2.754-1.132
			c-1.578-0.342-2.744-0.794-3.496-1.354c-0.754-0.562-1.129-1.355-1.129-2.381c0-1.011,0.424-1.861,1.274-2.559
			c0.85-0.697,1.976-1.044,3.375-1.044c1.487,0,2.668,0.368,3.539,1.104c0.871,0.735,1.287,1.656,1.246,2.766l-0.024,0.072h-1.354
			c0-0.726-0.309-1.354-0.922-1.894c-0.615-0.537-1.443-0.806-2.484-0.806c-1.064,0-1.867,0.229-2.396,0.687
			c-0.533,0.457-0.803,0.994-0.803,1.609c0,0.606,0.23,1.109,0.689,1.506c0.461,0.396,1.379,0.745,2.754,1.044
			c1.57,0.354,2.746,0.831,3.527,1.439c0.781,0.606,1.172,1.435,1.172,2.479c0,1.104-0.445,1.994-1.336,2.678
			c-0.893,0.682-2.07,1.021-3.535,1.021c-1.604,0-2.861-0.382-3.777-1.146c-0.916-0.768-1.35-1.679-1.301-2.734l0.025-0.074h1.342
			c0.057,0.948,0.445,1.637,1.166,2.066c0.721,0.429,1.568,0.645,2.545,0.645c1.059,0,1.893-0.229,2.504-0.692
			C309.019,376.622,309.325,376.063,309.325,375.406z"/>
		<path fill="#FFFFFF" d="M319.228,379.025c-1.651,0-3.024-0.609-4.121-1.83c-1.094-1.221-1.642-2.768-1.642-4.639v-0.672
			c0-1.89,0.543-3.455,1.63-4.699c1.086-1.246,2.401-1.868,3.948-1.868c1.619,0,2.894,0.513,3.819,1.538
			c0.929,1.025,1.394,2.393,1.394,4.102v1.245h-9.325v0.354c0,1.483,0.396,2.729,1.185,3.727c0.788,0.999,1.825,1.499,3.112,1.499
			c0.91,0,1.688-0.127,2.332-0.379s1.19-0.614,1.646-1.086l0.623,1c-0.496,0.523-1.125,0.938-1.887,1.247
			C321.183,378.87,320.277,379.025,319.228,379.025z M319.043,366.562c-1.082,0-1.989,0.412-2.724,1.235
			c-0.731,0.822-1.157,1.854-1.28,3.099l0.024,0.061h7.738v-0.363c0-1.146-0.339-2.104-1.015-2.873
			C321.115,366.948,320.202,366.562,319.043,366.562z"/>
		<path fill="#FFFFFF" d="M335.185,375.406c0-0.617-0.254-1.157-0.763-1.62c-0.51-0.463-1.428-0.84-2.754-1.132
			c-1.578-0.342-2.744-0.794-3.496-1.354c-0.754-0.562-1.129-1.355-1.129-2.381c0-1.011,0.424-1.861,1.274-2.559
			c0.851-0.696,1.976-1.044,3.375-1.044c1.488,0,2.668,0.368,3.539,1.104c0.871,0.735,1.287,1.656,1.246,2.766l-0.024,0.072H335.1
			c0-0.726-0.309-1.354-0.922-1.894c-0.615-0.537-1.443-0.806-2.484-0.806c-1.066,0-1.867,0.229-2.398,0.687
			c-0.531,0.457-0.801,0.994-0.801,1.609c0,0.606,0.23,1.109,0.689,1.506c0.461,0.396,1.379,0.745,2.754,1.044
			c1.57,0.354,2.746,0.831,3.527,1.439c0.781,0.606,1.172,1.435,1.172,2.479c0,1.104-0.445,1.994-1.336,2.678
			c-0.893,0.682-2.07,1.021-3.535,1.021c-1.604,0-2.861-0.382-3.777-1.146c-0.916-0.768-1.35-1.679-1.301-2.734l0.025-0.074h1.342
			c0.057,0.948,0.445,1.637,1.166,2.066c0.721,0.429,1.568,0.645,2.545,0.645c1.059,0,1.893-0.229,2.504-0.692
			C334.879,376.622,335.185,376.063,335.185,375.406z"/>
	</g>
</g>
</svg>
