<?xml version="1.0" encoding="utf-8"?>
<!-- Generator: Adobe Illustrator 16.0.0, SVG Export Plug-In . SVG Version: 6.00 Build 0)  -->
<!DOCTYPE svg PUBLIC "-//W3C//DTD SVG 1.1//EN" "http://www.w3.org/Graphics/SVG/1.1/DTD/svg11.dtd">
<svg version="1.1" xmlns="http://www.w3.org/2000/svg" xmlns:xlink="http://www.w3.org/1999/xlink" x="0px" y="0px"
	 width="389.991px" height="745.71px" viewBox="0 0 389.991 745.71" enable-background="new 0 0 389.991 745.71"
	 xml:space="preserve">
<g id="Ebene_9" display="none">
	<rect x="-225.951" y="-328.514" display="inline" fill="#474747" width="841.89" height="1400.636"/>
</g>
<g id="Background_1_" display="none">
	<polyline display="inline" fill="#2471A3" points="516.05,960.517 -123.95,960.517 -123.95,-175.483 516.05,-175.483 	"/>
</g>
<g id="Status_Bar" display="none">
</g>
<g id="Tutorial" display="none">
	<rect x="-112.952" y="-47.483" display="inline" fill="none" width="620.002" height="53.221"/>
	
		<text transform="matrix(1 0 0 1 59.6982 -13.1934)" display="inline" fill="#FFFFFF" font-family="'Roboto-Regular'" font-size="45">Datenabfrage</text>
</g>
<g id="IPhone">
	<path fill-rule="evenodd" clip-rule="evenodd" fill="#FFFFFF" stroke="#040605" stroke-miterlimit="10" d="M88.572,22.371h212.844
		c41.22,0,74.946,33.726,74.946,74.947v565.087c0,41.217-33.727,74.941-74.946,74.941H88.572c-41.218,0-74.946-33.725-74.946-74.941
		V97.318C13.625,56.097,47.354,22.371,88.572,22.371z"/>
	<path fill-rule="evenodd" clip-rule="evenodd" fill="#FFFFFF" stroke="#040605" stroke-miterlimit="10" d="M141.005,47.849h109.976
		c2.983,0,5.421,2.44,5.421,5.422l0,0c0,2.983-2.438,5.422-5.421,5.422H141.005c-2.981,0-5.422-2.438-5.422-5.422l0,0
		C135.583,50.289,138.024,47.849,141.005,47.849z"/>
	<path fill-rule="evenodd" clip-rule="evenodd" fill="#FFFFFF" stroke="#040605" stroke-miterlimit="10" d="M194.995,721.677
		c10.093,0,18.323-8.232,18.323-18.326c0-10.092-8.23-18.32-18.323-18.32c-10.094,0-18.325,8.229-18.325,18.32
		C176.669,713.444,184.901,721.677,194.995,721.677z"/>
	<path fill-rule="evenodd" clip-rule="evenodd" fill="none" stroke="#070708" stroke-miterlimit="10" d="M46.577,82.327h296.831
		c0.576,0,1.048,0.472,1.048,1.049v586.973c0,0.576-0.472,1.049-1.048,1.049H46.577c-0.576,0-1.048-0.473-1.048-1.049V83.376
		C45.529,82.799,46.001,82.327,46.577,82.327z"/>
	<path fill="none" stroke="#000000" stroke-miterlimit="10" d="M327.745,651.142H62.234c-2.228,0-4.048-1.839-4.048-4.148v-32.327
		c0-2.309,1.821-4.149,4.048-4.149h265.511c2.252,0,4.055,1.841,4.055,4.149v32.327
		C331.799,649.303,329.997,651.142,327.745,651.142"/>
	<path fill="#FDFDFD" stroke="#000000" stroke-miterlimit="10" d="M330.308,503.241v35.897c0,2.287-1.805,4.142-4.033,4.142"/>
	<path fill="#FDFDFD" stroke="#000000" stroke-miterlimit="10" d="M57.862,506.741V394.068c0-7.184,1.806-13.003,4.033-13.003"/>
	<path fill="none" stroke="#000000" stroke-miterlimit="10" d="M327.745,598.979H62.234c-2.228,0-4.048-1.839-4.048-4.148v-32.327
		c0-2.309,1.821-4.149,4.048-4.149h265.511c2.252,0,4.055,1.841,4.055,4.149v32.327
		C331.799,597.141,329.997,598.979,327.745,598.979"/>
	<rect x="126.676" y="168.902" fill="#FFFFFF" stroke="#000000" stroke-miterlimit="10" width="138.75" height="138.807"/>
	<path fill="#FFFFFF" stroke="#000000" stroke-miterlimit="10" d="M61.83,381.065h264.38c2.229,0,4.033,5.656,4.033,12.638v109.513"
		/>
	
		<line fill-rule="evenodd" clip-rule="evenodd" fill="#AEB0A7" stroke="#000000" stroke-width="0.5" stroke-miterlimit="10" x1="330.526" y1="421.991" x2="58.08" y2="421.991"/>
	
		<line fill-rule="evenodd" clip-rule="evenodd" fill="#AEB0A7" stroke="#000000" stroke-width="0.5" stroke-miterlimit="10" x1="330.526" y1="462.616" x2="58.08" y2="462.616"/>
	<path fill="#FFFFFF" stroke="#000000" stroke-miterlimit="10" d="M326.275,543.28H61.895c-2.227,0-4.033-1.854-4.033-4.142v-35.897
		"/>
	
		<line fill-rule="evenodd" clip-rule="evenodd" fill="#AEB0A7" stroke="#000000" stroke-width="0.5" stroke-miterlimit="10" x1="329.904" y1="503.241" x2="57.458" y2="503.241"/>
	<rect x="63.384" y="394.517" fill="none" width="265.132" height="27.667"/>
	<text transform="matrix(1 0 0 1 63.3838 408.2324)" fill="#FBC120" font-family="'Roboto-Light'" font-size="18">Vorname</text>
	<rect x="62.984" y="515.764" fill="none" width="265.132" height="27.667"/>
	<text transform="matrix(1 0 0 1 62.9844 529.4795)" fill="#FBC120" font-family="'Roboto-Light'" font-size="18">E-Mail Adresse</text>
	<rect x="63.384" y="475.549" fill="none" width="265.132" height="27.667"/>
	<text transform="matrix(1 0 0 1 63.3838 489.2646)" fill="#FBC120" font-family="'Roboto-Light'" font-size="18">Telefonnummer</text>
	<rect x="63.384" y="434.949" fill="none" width="265.132" height="27.667"/>
	<text transform="matrix(1 0 0 1 63.3838 448.665)" fill="#FBC120" font-family="'Roboto-Light'" font-size="18">Nachname</text>
</g>
</svg>
