<?xml version="1.0" encoding="utf-8"?>
<!-- Generator: Adobe Illustrator 16.0.0, SVG Export Plug-In . SVG Version: 6.00 Build 0)  -->
<!DOCTYPE svg PUBLIC "-//W3C//DTD SVG 1.1//EN" "http://www.w3.org/Graphics/SVG/1.1/DTD/svg11.dtd">
<svg version="1.1" xmlns="http://www.w3.org/2000/svg" xmlns:xlink="http://www.w3.org/1999/xlink" x="0px" y="0px" width="390px"
	 height="745.714px" viewBox="0 0 390 745.714" enable-background="new 0 0 390 745.714" xml:space="preserve">
<g id="Ebene_9" display="none">
	<rect x="-226.144" y="-333.459" display="inline" fill="#474747" width="841.89" height="1400.636"/>
</g>
<g id="Background_1_" display="none">
	<polyline display="inline" fill="#2471A3" points="515.857,955.571 -124.143,955.571 -124.143,-180.429 515.857,-180.429 	"/>
</g>
<g id="Status_Bar" display="none">
</g>
<g id="Tutorial" display="none">
	<rect x="-113.145" y="-52.429" display="inline" fill="none" width="620.002" height="53.221"/>
	
		<text transform="matrix(1 0 0 1 117.3486 -18.1387)" display="inline" fill="#FFFFFF" font-family="'Roboto-Regular'" font-size="45">Kontakt</text>
</g>
<g id="IPhone">
	<path fill-rule="evenodd" clip-rule="evenodd" fill="#FFFFFF" stroke="#040605" stroke-miterlimit="10" d="M88.379,17.425h212.844
		c41.22,0,74.946,33.726,74.946,74.947V657.46c0,41.217-33.727,74.941-74.946,74.941H88.379c-41.218,0-74.946-33.725-74.946-74.941
		V92.373C13.433,51.151,47.161,17.425,88.379,17.425z"/>
	<path fill-rule="evenodd" clip-rule="evenodd" fill="#FFFFFF" stroke="#040605" stroke-miterlimit="10" d="M140.812,42.904h109.976
		c2.983,0,5.421,2.44,5.421,5.422l0,0c0,2.983-2.438,5.422-5.421,5.422H140.812c-2.981,0-5.422-2.438-5.422-5.422l0,0
		C135.39,45.344,137.831,42.904,140.812,42.904z"/>
	<path fill-rule="evenodd" clip-rule="evenodd" fill="#FFFFFF" stroke="#040605" stroke-miterlimit="10" d="M193.802,716.731
		c10.093,0,18.323-8.232,18.323-18.326c0-10.092-8.23-18.32-18.323-18.32c-10.094,0-18.325,8.229-18.325,18.32
		C175.477,708.499,183.708,716.731,193.802,716.731z"/>
	<path fill-rule="evenodd" clip-rule="evenodd" fill="none" stroke="#070708" stroke-miterlimit="10" d="M46.384,77.381h296.831
		c0.576,0,1.048,0.472,1.048,1.049v586.973c0,0.576-0.472,1.049-1.048,1.049H46.384c-0.576,0-1.048-0.473-1.048-1.049V78.431
		C45.336,77.854,45.809,77.381,46.384,77.381z"/>
	<line stroke="#000000" stroke-miterlimit="10" x1="344.133" y1="215.886" x2="45.336" y2="215.886"/>
	<line fill="none" stroke="#040605" stroke-miterlimit="10" x1="45.207" y1="120.267" x2="344.133" y2="120.267"/>
	<rect x="55.112" y="129.702" fill="none" stroke="#000000" stroke-miterlimit="10" width="77.33" height="77.328"/>
	<line stroke="#000000" stroke-miterlimit="10" x1="344.337" y1="396.314" x2="45.336" y2="396.314"/>
	<path fill="#FCC220" d="M70.615,337.169c0.226,0,0.447,0.041,0.66,0.128c0.623,0.264,4.37,3.619,5.098,7.962
		c0,0-0.365,1.81-2.185,4.344c0,0,0.364,1.806,4.721,6.138c4.36,4.331,6.178,4.692,6.178,4.692c2.549-1.81,4.37-2.171,4.37-2.171
		c4.369,0.725,7.746,4.447,8.011,5.065c0.825,1.931-2.549,4.704-2.549,4.704c-0.798,0.341-1.656,0.491-2.557,0.491
		c-6.952,0-16.224-9.026-16.722-9.517c-0.267-0.267-12.124-12.162-9.098-19.174C66.542,339.832,68.757,337.169,70.615,337.169
		 M75.62,358.986L75.62,358.986 M75.62,358.986l0.012,0.011L75.62,358.986 M75.631,358.997l0.008,0.009l0.005,0.005L75.631,358.997
		 M70.615,335.599c-2.469,0-4.832,2.689-5.28,3.228l-0.146,0.175L65.1,339.21c-3.35,7.765,7.99,19.466,9.411,20.885h-0.001
		l0.004,0.004l0.014,0.014l0.014,0.014c1.096,1.077,10.372,9.966,17.821,9.966c1.145,0,2.212-0.206,3.171-0.616l0.208-0.087
		l0.174-0.145c0.715-0.588,4.221-3.667,2.996-6.534c-0.48-1.122-4.285-5.183-9.199-5.998l-0.281-0.045l-0.282,0.055
		c-0.199,0.04-1.871,0.406-4.228,1.927c-0.769-0.426-2.358-1.49-4.906-4.022c-2.532-2.518-3.605-4.094-4.039-4.858
		c1.526-2.341,1.894-4,1.935-4.199l0.056-0.283L77.921,345c-0.82-4.889-4.907-8.672-6.036-9.148
		C71.488,335.684,71.061,335.599,70.615,335.599"/>
	<path fill="#FCC220" d="M138.741,365.529h41.17v-26.76h-41.17V365.529z M162.81,355.078c-0.933,0.936-2.176,1.45-3.496,1.45
		c-1.321,0-2.563-0.515-3.499-1.45l-14.25-14.25h35.497L162.81,355.078z M151.381,352.098L140.8,362.679v-21.161L151.381,352.098z
		 M152.109,352.825l2.979,2.981c1.129,1.128,2.629,1.751,4.226,1.751c1.596,0,3.096-0.623,4.224-1.751l2.938-2.938l10.602,10.603
		h-35.616L152.109,352.825z M167.204,352.141l10.649-10.648v21.299L167.204,352.141z"/>
	<line stroke="#000000" stroke-miterlimit="10" x1="344.078" y1="308.43" x2="45.853" y2="308.43"/>
	<line stroke="#000000" stroke-miterlimit="10" x1="344.263" y1="606.166" x2="45.336" y2="606.166"/>
	<g>
		<g>
			
				<circle fill="#FFFFFF" stroke="#FCC220" stroke-width="2" stroke-linecap="round" stroke-miterlimit="10" cx="240.004" cy="352.15" r="17.811"/>
			<path fill="#FFFFFF" stroke="#FCC220" stroke-width="2" stroke-miterlimit="10" d="M226.176,363.606
				c3.266-2.011,8.248-3.293,13.828-3.293c5.506,0,10.427,1.247,13.693,3.21"/>
			<path fill="#FFFFFF" stroke="#FCC220" stroke-width="2" stroke-miterlimit="10" d="M253.834,340.694
				c-3.266,2.01-8.248,3.292-13.83,3.292c-5.504,0-10.426-1.248-13.692-3.209"/>
			
				<line fill="#FFFFFF" stroke="#FCC220" stroke-width="2" stroke-miterlimit="10" x1="222.193" y1="352.149" x2="257.815" y2="352.149"/>
			
				<ellipse fill="none" stroke="#FCC220" stroke-width="2" stroke-linecap="round" stroke-miterlimit="10" cx="240.004" cy="352.15" rx="8.906" ry="17.811"/>
		</g>
		
			<line fill="#FFFFFF" stroke="#FCC220" stroke-width="2" stroke-miterlimit="10" x1="240.073" y1="334.339" x2="240.073" y2="369.961"/>
	</g>
	<g id="Expanded_1_">
		<g>
			<g>
				<path fill="#FCC220" d="M308.062,371.732l-0.65-0.941c-0.489-0.709-12.004-17.455-12.004-24.178
					c0-6.977,5.678-12.654,12.654-12.654c6.979,0,12.654,5.678,12.654,12.654c0,6.723-11.514,23.469-12.004,24.178L308.062,371.732z
					 M308.062,335.541c-6.105,0-11.072,4.967-11.072,11.072c0,5.369,8.608,18.63,11.072,22.316
					c2.464-3.687,11.073-16.947,11.073-22.316C319.136,340.508,314.17,335.541,308.062,335.541z"/>
			</g>
			<g>
				<path fill="#FCC220" d="M308.062,352.149c-3.052,0-5.536-2.482-5.536-5.536c0-3.053,2.484-5.536,5.536-5.536
					c3.053,0,5.537,2.483,5.537,5.536C313.6,349.667,311.115,352.149,308.062,352.149z M308.062,342.659
					c-2.181,0-3.954,1.774-3.954,3.954c0,2.182,1.773,3.955,3.954,3.955s3.955-1.773,3.955-3.955
					C312.018,344.434,310.243,342.659,308.062,342.659z"/>
			</g>
		</g>
	</g>
</g>
</svg>
