<?xml version="1.0" encoding="utf-8"?>
<!-- Generator: Adobe Illustrator 16.0.0, SVG Export Plug-In . SVG Version: 6.00 Build 0)  -->
<!DOCTYPE svg PUBLIC "-//W3C//DTD SVG 1.1//EN" "http://www.w3.org/Graphics/SVG/1.1/DTD/svg11.dtd">
<svg version="1.1" xmlns="http://www.w3.org/2000/svg" xmlns:xlink="http://www.w3.org/1999/xlink" x="0px" y="0px"
	 width="389.991px" height="745.71px" viewBox="0 0 389.991 745.71" enable-background="new 0 0 389.991 745.71"
	 xml:space="preserve">
<g id="Ebene_9" display="none">
	<rect x="-225.951" y="-328.514" display="inline" fill="#474747" width="841.89" height="1400.636"/>
</g>
<g id="Background_1_" display="none">
	<polyline display="inline" fill="#2471A3" points="516.05,960.517 -123.95,960.517 -123.95,-175.483 516.05,-175.483 	"/>
</g>
<g id="Status_Bar" display="none">
</g>
<g id="Tutorial" display="none">
	<rect x="-112.952" y="-47.483" display="inline" fill="none" width="620.002" height="53.221"/>
	
		<text transform="matrix(1 0 0 1 73.3213 -13.1934)" display="inline" fill="#FFFFFF" font-family="'Roboto-Regular'" font-size="45">Nachrichten</text>
</g>
<g id="IPhone">
	<path fill-rule="evenodd" clip-rule="evenodd" fill="#FFFFFF" stroke="#040605" stroke-miterlimit="10" d="M88.572,22.371h212.844
		c41.22,0,74.946,33.726,74.946,74.947v565.087c0,41.217-33.727,74.941-74.946,74.941H88.572c-41.218,0-74.946-33.725-74.946-74.941
		V97.318C13.625,56.097,47.354,22.371,88.572,22.371z"/>
	<path fill-rule="evenodd" clip-rule="evenodd" fill="#FFFFFF" stroke="#040605" stroke-miterlimit="10" d="M141.005,47.849h109.976
		c2.983,0,5.421,2.44,5.421,5.422l0,0c0,2.983-2.438,5.422-5.421,5.422H141.005c-2.981,0-5.422-2.438-5.422-5.422l0,0
		C135.583,50.289,138.024,47.849,141.005,47.849z"/>
	<path fill-rule="evenodd" clip-rule="evenodd" fill="#FFFFFF" stroke="#040605" stroke-miterlimit="10" d="M193.995,721.677
		c10.093,0,18.323-8.232,18.323-18.326c0-10.092-8.23-18.32-18.323-18.32c-10.094,0-18.325,8.229-18.325,18.32
		C175.669,713.444,183.901,721.677,193.995,721.677z"/>
	<path fill-rule="evenodd" clip-rule="evenodd" fill="none" stroke="#070708" stroke-miterlimit="10" d="M46.577,82.327h296.831
		c0.576,0,1.048,0.472,1.048,1.049v586.973c0,0.576-0.472,1.049-1.048,1.049H46.577c-0.576,0-1.048-0.473-1.048-1.049V83.376
		C45.529,82.799,46.001,82.327,46.577,82.327z"/>
	<line stroke="#000000" stroke-miterlimit="10" x1="344.326" y1="217.831" x2="63.145" y2="217.831"/>
	<line stroke="#000000" stroke-miterlimit="10" x1="344.326" y1="306.906" x2="63.145" y2="306.906"/>
	<line stroke="#000000" stroke-miterlimit="10" x1="344.326" y1="394.831" x2="63.145" y2="394.831"/>
	<line stroke="#000000" stroke-miterlimit="10" x1="344.326" y1="483.975" x2="63.145" y2="483.975"/>
	<line fill="none" stroke="#040605" stroke-miterlimit="10" x1="45.399" y1="125.212" x2="344.326" y2="125.212"/>
	<line fill="none" stroke="#040605" stroke-miterlimit="10" x1="45.773" y1="576.354" x2="344.701" y2="576.354"/>
	<rect x="55.305" y="223.314" fill="none" stroke="#000000" stroke-miterlimit="10" width="77.33" height="77.329"/>
	<rect x="55.305" y="401.186" fill="none" stroke="#000000" stroke-miterlimit="10" width="77.33" height="77.329"/>
	<rect x="55.168" y="490.933" fill="none" stroke="#000000" stroke-miterlimit="10" width="77.33" height="77.329"/>
	<rect x="55.168" y="312.237" fill="none" stroke="#000000" stroke-miterlimit="10" width="77.33" height="77.329"/>
	<rect x="55.305" y="134.647" fill="none" stroke="#000000" stroke-miterlimit="10" width="77.33" height="77.328"/>
	<path fill="none" stroke="#000000" stroke-miterlimit="10" d="M227.261,620.916c0,18.374-14.895,33.268-33.269,33.268
		c-18.372,0-33.266-14.894-33.266-33.268c0-18.372,14.895-33.267,33.266-33.267C212.367,587.649,227.261,602.544,227.261,620.916"/>
	<line fill="none" stroke="#000000" stroke-miterlimit="10" x1="193.993" y1="602.618" x2="193.993" y2="639.215"/>
	<line fill="none" stroke="#000000" stroke-miterlimit="10" x1="175.695" y1="620.917" x2="212.292" y2="620.917"/>
	<path fill-rule="evenodd" clip-rule="evenodd" fill="#FCC220" d="M320.507,182.357c4.981,0,9.045-4.063,9.045-9.047
		c0-4.981-4.063-9.044-9.045-9.044c-4.983,0-9.047,4.062-9.047,9.044C311.46,178.293,315.524,182.357,320.507,182.357z"/>
	<path fill-rule="evenodd" clip-rule="evenodd" fill="#FCC220" d="M320.507,271.023c4.981,0,9.045-4.062,9.045-9.047
		c0-4.98-4.063-9.043-9.045-9.043c-4.983,0-9.047,4.062-9.047,9.043C311.46,266.961,315.524,271.023,320.507,271.023z"/>
</g>
</svg>
